<?xml version="1.0" standalone="no"?>
<!DOCTYPE svg PUBLIC "-//W3C//DTD SVG 20010904//EN"
 "http://www.w3.org/TR/2001/REC-SVG-20010904/DTD/svg10.dtd">
<svg version="1.0" xmlns="http://www.w3.org/2000/svg"
 width="128.000000pt" height="128.000000pt" viewBox="0 0 128.000000 128.000000"
 preserveAspectRatio="xMidYMid meet">

<g transform="translate(0.000000,128.000000) scale(0.100000,-0.100000)"
fill="#000000" stroke="none">
<path d="M1190 873 l0 -86 -24 22 c-35 33 -101 38 -144 11 -95 -59 -95 -261 0
-320 43 -27 109 -22 144 11 l24 22 0 -21 c0 -18 6 -22 30 -22 l30 0 0 235 0
235 -30 0 -30 0 0 -87z m-48 -94 c70 -37 59 -218 -14 -243 -64 -22 -118 34
-118 122 0 101 62 158 132 121z"/>
<path d="M170 833 c-8 -3 -25 -15 -37 -26 l-23 -20 0 21 c0 18 -6 22 -30 22
l-30 0 0 -235 0 -235 30 0 30 0 0 87 0 86 24 -22 c15 -15 41 -25 68 -28 92 -9
155 74 146 192 -3 33 -13 76 -22 93 -29 56 -100 85 -156 65z m72 -54 c70 -37
59 -218 -14 -243 -64 -22 -118 34 -118 122 0 101 62 158 132 121z"/>
<path d="M464 824 c-34 -16 -54 -50 -54 -90 0 -41 48 -80 113 -94 61 -12 87
-30 87 -60 0 -46 -80 -63 -159 -35 l-41 14 0 -29 c0 -26 5 -31 42 -41 93 -25
191 4 212 63 21 59 -17 110 -98 128 -64 15 -96 35 -96 60 0 42 73 62 148 41
32 -10 33 -9 30 17 -2 18 -11 28 -28 33 -45 12 -124 9 -156 -7z"/>
<path d="M730 665 c0 -25 1 -25 80 -25 79 0 80 0 80 25 0 25 -1 25 -80 25 -79
0 -80 0 -80 -25z"/>
</g>
</svg>
