<?xml version="1.0" standalone="no"?>
<!DOCTYPE svg PUBLIC "-//W3C//DTD SVG 20010904//EN"
 "http://www.w3.org/TR/2001/REC-SVG-20010904/DTD/svg10.dtd">
<svg version="1.0" xmlns="http://www.w3.org/2000/svg"
 width="1056.000000pt" height="816.000000pt" viewBox="0 0 1056.000000 816.000000"
 preserveAspectRatio="xMidYMid meet">

<g transform="translate(0.000000,816.000000) scale(0.100000,-0.100000)"
fill="#000000" stroke="none">
<path d="M5265 6924 c-27 -9 -72 -19 -100 -24 -27 -4 -86 -20 -130 -35 -44
-16 -102 -34 -130 -41 -27 -7 -108 -33 -180 -58 -71 -25 -131 -46 -132 -46
-13 0 -88 -81 -102 -109 -32 -64 -51 -176 -51 -307 0 -189 31 -310 128 -499
45 -87 72 -126 132 -186 76 -78 159 -129 230 -144 76 -15 70 1 70 -180 0 -141
-2 -164 -16 -169 -9 -4 -60 -11 -113 -16 -383 -37 -402 -42 -467 -112 -53 -55
-68 -95 -68 -173 0 -78 15 -118 68 -173 59 -63 98 -77 221 -77 61 1 173 9 250
19 77 11 158 19 180 20 l40 1 6 -55 c15 -129 29 -222 38 -258 17 -63 31 -187
40 -370 l9 -172 -25 -46 c-17 -30 -27 -67 -31 -110 l-5 -64 -116 -99 c-115
-99 -206 -193 -231 -241 -7 -14 -31 -45 -53 -70 -45 -52 -60 -78 -94 -169 -73
-194 -66 -299 29 -387 55 -53 95 -68 173 -68 78 0 118 15 173 68 41 38 55 63
86 160 16 49 41 95 70 133 25 32 55 70 67 85 16 22 183 171 249 223 8 7 29 15
47 18 28 6 39 0 101 -56 38 -35 88 -75 111 -90 22 -15 58 -38 80 -52 75 -50
420 -225 442 -225 7 0 20 -6 28 -14 9 -8 133 -68 276 -132 250 -113 263 -117
330 -118 78 -1 117 15 173 68 56 52 76 101 76 181 0 52 -5 80 -21 110 -40 76
-79 101 -313 206 -122 55 -233 108 -246 118 -13 10 -49 28 -81 40 -32 12 -71
29 -88 38 -16 9 -91 47 -165 85 -74 39 -152 80 -173 92 -60 36 -216 194 -242
246 -13 26 -45 66 -71 89 l-47 41 -8 162 c-9 188 -33 398 -48 427 -6 11 -11
41 -11 68 0 26 -7 81 -15 121 -9 40 -13 77 -10 83 4 5 23 9 42 9 40 0 50 2
353 55 258 46 365 68 460 94 41 11 114 25 162 30 125 14 195 58 244 151 27 51
25 162 -3 215 -25 47 -74 95 -123 121 -51 28 -252 25 -347 -4 -157 -49 -208
-62 -235 -62 -16 0 -106 -16 -199 -35 -94 -19 -194 -35 -223 -35 -28 0 -91 -9
-139 -19 l-87 -19 0 249 0 249 134 0 c116 0 144 3 212 26 95 30 197 84 242
127 69 65 112 184 112 309 0 96 -14 165 -51 245 -47 107 -408 453 -549 529
-48 25 -271 31 -345 8z"/>
</g>
</svg>
