<?xml version="1.0" standalone="no"?>
<!DOCTYPE svg PUBLIC "-//W3C//DTD SVG 20010904//EN"
 "http://www.w3.org/TR/2001/REC-SVG-20010904/DTD/svg10.dtd">
<svg version="1.0" xmlns="http://www.w3.org/2000/svg"
 width="128.000000pt" height="128.000000pt" viewBox="0 0 128.000000 128.000000"
 preserveAspectRatio="xMidYMid meet">

<g transform="translate(0.000000,128.000000) scale(0.100000,-0.100000)"
fill="#000000" stroke="none">
<path d="M433 835 c-56 -24 -78 -96 -48 -154 15 -30 35 -40 127 -66 81 -22
104 -73 52 -114 -31 -25 -81 -27 -147 -7 -47 14 -47 14 -47 -10 0 -18 8 -25
38 -33 92 -26 193 -3 219 49 38 76 -4 143 -107 167 -75 17 -100 35 -100 74 0
59 78 85 163 55 36 -13 37 -13 37 10 0 18 -8 25 -37 33 -52 15 -112 13 -150
-4z"/>
<path d="M60 645 l0 -195 25 0 c25 0 25 1 25 79 l0 79 70 4 c59 3 74 8 96 29
29 30 41 90 25 131 -18 48 -65 68 -158 68 l-83 0 0 -195z m174 134 c19 -15 26
-30 26 -54 0 -47 -37 -75 -101 -75 l-49 0 0 75 0 75 49 0 c34 0 56 -6 75 -21z"/>
<path d="M910 645 l0 -197 98 4 c168 7 217 50 217 193 0 142 -49 186 -217 193
l-98 4 0 -197z m200 137 c44 -22 70 -72 70 -137 0 -103 -55 -155 -162 -155
l-58 0 0 155 0 155 58 0 c34 0 71 -7 92 -18z"/>
<path d="M700 590 c0 -18 7 -20 70 -20 63 0 70 2 70 20 0 18 -7 20 -70 20 -63
0 -70 -2 -70 -20z"/>
</g>
</svg>
